<svg width="60" height="44" viewBox="0 0 60 44" fill="none" xmlns="http://www.w3.org/2000/svg">
<g clip-path="url(#clip0_2_14)">
<path d="M28.4502 27.6229L17.4465 21.7306C16.9988 21.4792 16.6458 21.1493 16.3875 20.7407C16.1292 20.3322 16 19.8765 16 19.3737V7.6835C16 7.21212 16.1292 6.76431 16.3875 6.34007C16.6458 5.91583 16.9988 5.578 17.4465 5.3266L28.8118 0.47138C27.1073 1.19953 27.4316 1.06101 28.7636 0.487837C29.4834 0.178109 30.8266 0.47138 30.8266 0.47138V0.47138L42.5535 5.3266C43.0012 5.578 43.3542 5.91583 43.6125 6.34007C43.8708 6.76431 44 7.21212 44 7.6835V19.3737C44 19.8765 43.8708 20.3322 43.6125 20.7407C43.3542 21.1493 42.984 21.4792 42.5018 21.7306L31.3948 27.6229C30.9127 27.8743 30.4133 28 29.8967 28C29.3801 28 28.8979 27.8743 28.4502 27.6229ZM28.8118 25.3131V12.2559L18.3764 8.6734V19.3266C18.3764 19.4209 18.4022 19.5152 18.4539 19.6094C18.5055 19.7037 18.6002 19.7823 18.738 19.8451L28.8118 25.3131ZM31.1882 25.3131L41.3137 19.8451C41.417 19.7823 41.4945 19.7037 41.5461 19.6094C41.5978 19.5152 41.6236 19.4209 41.6236 19.3266V8.6734L31.1882 12.2559V25.3131ZM30 10.3704L40.4354 6.59933L30.5166 2.63973C30.4133 2.6083 30.1033 2.63973 30 2.63973C29.8967 2.63973 29.5867 2.6083 29.4834 2.63973L19.4613 6.59933L30 10.3704Z" fill="black"/>
<path d="M12.9402 41.1193C12.4032 41.1193 11.9231 41.0227 11.4998 40.8295C11.0765 40.6335 10.7413 40.3622 10.4941 40.0156C10.247 39.669 10.1163 39.2699 10.1021 38.8182H10.9075C10.9217 39.1364 11.0197 39.4148 11.2015 39.6534C11.3833 39.8892 11.6248 40.0739 11.926 40.2074C12.2271 40.3381 12.5623 40.4034 12.9316 40.4034C13.335 40.4034 13.6902 40.3281 13.997 40.1776C14.3066 40.027 14.5481 39.821 14.7214 39.5597C14.8975 39.2955 14.9856 38.9972 14.9856 38.6648C14.9856 38.3125 14.8961 38.0014 14.7172 37.7315C14.5382 37.4616 14.2811 37.2514 13.9458 37.1009C13.6135 36.9503 13.2157 36.875 12.7527 36.875H12.2413V36.1591H12.7527C13.1305 36.1591 13.4643 36.0909 13.7541 35.9545C14.0467 35.8153 14.2768 35.6207 14.4444 35.3707C14.612 35.1207 14.6958 34.8267 14.6958 34.4886C14.6958 34.1676 14.6234 33.8849 14.4785 33.6406C14.3336 33.3963 14.1291 33.2045 13.8649 33.0653C13.6035 32.9261 13.2981 32.8565 12.9487 32.8565C12.6106 32.8565 12.301 32.9219 12.0197 33.0526C11.7385 33.1832 11.5112 33.3679 11.3379 33.6065C11.1674 33.8452 11.0765 34.1278 11.0652 34.4545H10.2939C10.3052 34 10.4302 33.6009 10.6689 33.2571C10.9103 32.9105 11.2299 32.6406 11.6277 32.4474C12.0282 32.2514 12.4714 32.1534 12.9572 32.1534C13.4714 32.1534 13.916 32.2585 14.291 32.4688C14.666 32.679 14.9558 32.9588 15.1603 33.3082C15.3677 33.6548 15.4714 34.0369 15.4714 34.4545C15.4714 34.9517 15.3365 35.3778 15.0666 35.733C14.7967 36.0852 14.4331 36.3295 13.9757 36.4659V36.5213C14.5325 36.6321 14.97 36.8793 15.2882 37.2628C15.6092 37.6435 15.7697 38.1108 15.7697 38.6648C15.7697 39.1307 15.6475 39.5497 15.4032 39.9219C15.1589 40.2912 14.8237 40.5838 14.3975 40.7997C13.9743 41.0128 13.4885 41.1193 12.9402 41.1193ZM19.5112 41.1491C19.1163 41.1491 18.7555 41.0724 18.4288 40.919C18.1021 40.7628 17.8422 40.5384 17.649 40.2457C17.4558 39.9503 17.3592 39.5923 17.3592 39.1719C17.3592 38.848 17.4203 38.5753 17.5424 38.3537C17.6646 38.1321 17.8379 37.9503 18.0623 37.8082C18.2868 37.6662 18.5524 37.554 18.8592 37.4716C19.166 37.3892 19.5041 37.3253 19.8734 37.2798C20.2399 37.2344 20.5495 37.1946 20.8024 37.1605C21.0581 37.1264 21.2527 37.0724 21.3862 36.9986C21.5197 36.9247 21.5865 36.8054 21.5865 36.6406V36.4872C21.5865 36.0412 21.4529 35.6903 21.1859 35.4347C20.9217 35.1761 20.541 35.0469 20.0439 35.0469C19.5723 35.0469 19.1873 35.1506 18.889 35.358C18.5936 35.5653 18.3862 35.8097 18.2669 36.0909L17.5467 35.831C17.6944 35.473 17.899 35.1875 18.1603 34.9744C18.4217 34.7585 18.7143 34.6037 19.0382 34.5099C19.362 34.4134 19.6902 34.3651 20.0225 34.3651C20.2725 34.3651 20.5325 34.3977 20.8024 34.4631C21.0751 34.5284 21.3279 34.642 21.5609 34.804C21.7939 34.9631 21.9828 35.1861 22.1277 35.473C22.2725 35.7571 22.345 36.1179 22.345 36.5554V41H21.5865V39.9645H21.5396C21.4487 40.1577 21.3137 40.3452 21.1348 40.527C20.9558 40.7088 20.7314 40.858 20.4615 40.9744C20.1916 41.0909 19.8748 41.1491 19.5112 41.1491ZM19.6135 40.4545C20.0169 40.4545 20.3663 40.3651 20.6618 40.1861C20.9572 40.0071 21.1845 39.7699 21.3436 39.4744C21.5055 39.1761 21.5865 38.848 21.5865 38.4901V37.544C21.5297 37.598 21.4345 37.6463 21.301 37.6889C21.1703 37.7315 21.0183 37.7699 20.845 37.804C20.6745 37.8352 20.5041 37.8622 20.3336 37.8849C20.1632 37.9077 20.0098 37.9276 19.8734 37.9446C19.5041 37.9901 19.1887 38.0611 18.9274 38.1577C18.666 38.2543 18.4657 38.3878 18.3265 38.5582C18.1873 38.7259 18.1177 38.9418 18.1177 39.206C18.1177 39.6037 18.2598 39.9119 18.5439 40.1307C18.8279 40.3466 19.1845 40.4545 19.6135 40.4545ZM24.3627 41V34.4545H25.1213V37.3991H25.8329L28.2662 34.4545H29.2463L26.6213 37.6037L29.3059 41H28.3258L26.0673 38.1151H25.1213V41H24.3627ZM32.3784 41.1491C31.9835 41.1491 31.6227 41.0724 31.296 40.919C30.9693 40.7628 30.7093 40.5384 30.5162 40.2457C30.323 39.9503 30.2264 39.5923 30.2264 39.1719C30.2264 38.848 30.2875 38.5753 30.4096 38.3537C30.5318 38.1321 30.7051 37.9503 30.9295 37.8082C31.1539 37.6662 31.4196 37.554 31.7264 37.4716C32.0332 37.3892 32.3713 37.3253 32.7406 37.2798C33.1071 37.2344 33.4167 37.1946 33.6696 37.1605C33.9252 37.1264 34.1199 37.0724 34.2534 36.9986C34.3869 36.9247 34.4537 36.8054 34.4537 36.6406V36.4872C34.4537 36.0412 34.3201 35.6903 34.0531 35.4347C33.7889 35.1761 33.4082 35.0469 32.911 35.0469C32.4395 35.0469 32.0545 35.1506 31.7562 35.358C31.4608 35.5653 31.2534 35.8097 31.1341 36.0909L30.4139 35.831C30.5616 35.473 30.7662 35.1875 31.0275 34.9744C31.2889 34.7585 31.5815 34.6037 31.9054 34.5099C32.2292 34.4134 32.5574 34.3651 32.8897 34.3651C33.1397 34.3651 33.3997 34.3977 33.6696 34.4631C33.9423 34.5284 34.1951 34.642 34.4281 34.804C34.661 34.9631 34.85 35.1861 34.9949 35.473C35.1397 35.7571 35.2122 36.1179 35.2122 36.5554V41H34.4537V39.9645H34.4068C34.3159 40.1577 34.1809 40.3452 34.002 40.527C33.823 40.7088 33.5985 40.858 33.3287 40.9744C33.0588 41.0909 32.742 41.1491 32.3784 41.1491ZM32.4806 40.4545C32.8841 40.4545 33.2335 40.3651 33.5289 40.1861C33.8244 40.0071 34.0517 39.7699 34.2108 39.4744C34.3727 39.1761 34.4537 38.848 34.4537 38.4901V37.544C34.3968 37.598 34.3017 37.6463 34.1681 37.6889C34.0375 37.7315 33.8855 37.7699 33.7122 37.804C33.5417 37.8352 33.3713 37.8622 33.2008 37.8849C33.0304 37.9077 32.877 37.9276 32.7406 37.9446C32.3713 37.9901 32.0559 38.0611 31.7946 38.1577C31.5332 38.2543 31.3329 38.3878 31.1937 38.5582C31.0545 38.7259 30.9849 38.9418 30.9849 39.206C30.9849 39.6037 31.127 39.9119 31.411 40.1307C31.6951 40.3466 32.0517 40.4545 32.4806 40.4545ZM36.8081 39.3295H37.6135C37.6362 39.679 37.7868 39.9517 38.0652 40.1477C38.3436 40.3438 38.71 40.4418 39.1646 40.4418C39.6362 40.4418 40.0254 40.3366 40.3322 40.1264C40.639 39.9134 40.7924 39.6037 40.7924 39.1974C40.7924 38.9503 40.7342 38.7358 40.6177 38.554C40.5041 38.3722 40.3478 38.2301 40.149 38.1278C39.9529 38.0227 39.7299 37.9687 39.4799 37.9659H38.3379V37.2713H39.4672C39.8564 37.2486 40.1518 37.1435 40.3535 36.956C40.5552 36.7656 40.6561 36.517 40.6561 36.2102C40.6561 35.8608 40.5325 35.581 40.2853 35.3707C40.0382 35.1577 39.7029 35.0511 39.2797 35.0511C38.8507 35.0511 38.4941 35.1562 38.21 35.3665C37.926 35.5767 37.7754 35.8466 37.7583 36.1761H36.9615C36.9757 35.821 37.0822 35.5085 37.2811 35.2386C37.4799 34.9659 37.7484 34.7528 38.0865 34.5994C38.4274 34.446 38.8137 34.3693 39.2456 34.3693C39.6887 34.3693 40.0737 34.4489 40.4004 34.608C40.7271 34.767 40.9799 34.9844 41.1589 35.2599C41.3379 35.5327 41.4274 35.8423 41.4274 36.1889C41.4274 36.5497 41.3279 36.8466 41.1291 37.0795C40.9331 37.3097 40.6816 37.4716 40.3748 37.5653V37.6293C40.6078 37.6548 40.8123 37.7401 40.9885 37.8849C41.1674 38.0298 41.3081 38.2159 41.4103 38.4432C41.5126 38.6705 41.5637 38.9219 41.5637 39.1974C41.5637 39.5838 41.4629 39.9233 41.2612 40.2159C41.0595 40.5057 40.7782 40.7315 40.4174 40.8935C40.0595 41.0554 39.6461 41.1364 39.1774 41.1364C38.7257 41.1364 38.3237 41.0611 37.9714 40.9105C37.6191 40.7571 37.3393 40.5455 37.1319 40.2756C36.9274 40.0028 36.8194 39.6875 36.8081 39.3295ZM43.7637 36.9815H45.6813C46.4171 36.9815 46.9853 37.1605 47.3858 37.5185C47.7864 37.8764 47.9867 38.3608 47.9867 38.9716C47.9867 39.3778 47.8958 39.733 47.714 40.0369C47.535 40.3409 47.2736 40.5781 46.9299 40.7486C46.5861 40.9162 46.1699 41 45.6813 41H43.133V34.4545H43.8958V40.2841H45.6813C46.1444 40.2841 46.5165 40.1733 46.7978 39.9517C47.0819 39.7301 47.2239 39.4148 47.2239 39.0057C47.2239 38.5881 47.0819 38.2656 46.7978 38.0384C46.5165 37.8111 46.1444 37.6974 45.6813 37.6974H43.7637V36.9815ZM49.0904 41V34.4545H49.8489V41H49.0904Z" fill="black"/>
</g>
<defs>
<clipPath id="clip0_2_14">
<rect width="60" height="44" fill="white"/>
</clipPath>
</defs>
</svg>
