<svg width="60" height="44" viewBox="0 0 60 44" fill="none" xmlns="http://www.w3.org/2000/svg">
<path d="M22.0447 6.5474L23.9022 17.8192H40.2617L42.1425 6.5474H22.0447ZM21.5704 4.37288H42.8896V4.37288C43.3645 4.62657 43.7223 5.05472 43.8876 5.56707L44 5.91526C44 5.91526 41.8163 19.7966 41.7792 19.7966H24.0898L24.3463 21.4181H42.0753L42.0383 22.9605H22.8658C22.4957 20.1921 22.4957 20.1921 22.4957 20.1921L21.9405 16.6328L19.5717 3.58192H16.1295L16 2H20.6821L21.5704 4.37288Z" fill="black"/>
<path d="M23.9022 29.1695C24.4204 29.7232 25.0496 30 25.7898 30C26.5301 30 27.1593 29.7232 27.6775 29.1695C28.1956 28.6158 28.4547 27.9435 28.4547 27.1525C28.4547 26.3616 28.1956 25.6893 27.6775 25.1356C27.1593 24.5819 26.5301 24.3051 25.7898 24.3051C25.0496 24.3051 24.4204 24.5819 23.9022 25.1356C23.384 25.6893 23.1249 26.3616 23.1249 27.1525C23.1249 27.9435 23.384 28.6158 23.9022 29.1695Z" fill="black"/>
<path d="M36.4865 29.1695C37.0046 29.7232 37.6338 30 38.3741 30C39.1143 30 39.7436 29.7232 40.2617 29.1695C40.7799 28.6158 41.039 27.9435 41.039 27.1525C41.039 26.3616 40.7799 25.6893 40.2617 25.1356C39.7436 24.5819 39.1143 24.3051 38.3741 24.3051C37.6338 24.3051 37.0046 24.5819 36.4865 25.1356C35.9683 25.6893 35.7092 26.3616 35.7092 27.1525C35.7092 27.9435 35.9683 28.6158 36.4865 29.1695Z" fill="black"/>
<path d="M12.2115 41L9.20721 36.8835H7.95011V41H7.15323V32.2727H7.95011V36.1719H8.73846L11.9558 32.2727H12.9018L9.66744 36.206L13.166 41H12.2115ZM16.5708 41.1364C16.0055 41.1364 15.5055 40.9929 15.0708 40.706C14.639 40.419 14.301 40.0227 14.0566 39.517C13.8123 39.0085 13.6902 38.4219 13.6902 37.7571C13.6902 37.0866 13.8123 36.4972 14.0566 35.9886C14.301 35.4773 14.639 35.0795 15.0708 34.7955C15.5055 34.5085 16.0055 34.3651 16.5708 34.3651C17.1362 34.3651 17.6348 34.5085 18.0666 34.7955C18.4984 35.0824 18.8365 35.4801 19.0808 35.9886C19.3279 36.4972 19.4515 37.0866 19.4515 37.7571C19.4515 38.4219 19.3294 39.0085 19.0851 39.517C18.8407 40.0227 18.5012 40.419 18.0666 40.706C17.6348 40.9929 17.1362 41.1364 16.5708 41.1364ZM16.5708 40.4418C17.0254 40.4418 17.4103 40.3196 17.7257 40.0753C18.041 39.831 18.2797 39.5057 18.4416 39.0994C18.6064 38.6932 18.6887 38.2457 18.6887 37.7571C18.6887 37.2685 18.6064 36.8196 18.4416 36.4105C18.2797 36.0014 18.041 35.6733 17.7257 35.4261C17.4103 35.179 17.0254 35.0554 16.5708 35.0554C16.1191 35.0554 15.7342 35.179 15.416 35.4261C15.1007 35.6733 14.8606 36.0014 14.6958 36.4105C14.5339 36.8196 14.4529 37.2685 14.4529 37.7571C14.4529 38.2457 14.5339 38.6932 14.6958 39.0994C14.8606 39.5057 15.1007 39.831 15.416 40.0753C15.7314 40.3196 16.1163 40.4418 16.5708 40.4418ZM21.1167 43.4545V34.4545H21.8539V35.7031H21.9434C22.0343 35.5071 22.1593 35.3068 22.3184 35.1023C22.4775 34.8949 22.6877 34.7202 22.949 34.5781C23.2132 34.4361 23.5456 34.3651 23.9462 34.3651C24.486 34.3651 24.9576 34.5071 25.361 34.7912C25.7672 35.0724 26.0826 35.4673 26.307 35.9759C26.5343 36.4815 26.6479 37.071 26.6479 37.7443C26.6479 38.4205 26.5343 39.0128 26.307 39.5213C26.0826 40.0298 25.7672 40.4261 25.361 40.7102C24.9576 40.9943 24.4888 41.1364 23.9547 41.1364C23.5598 41.1364 23.2289 41.0653 22.9618 40.9233C22.6976 40.7812 22.4831 40.6065 22.3184 40.3991C22.1564 40.1889 22.0314 39.9844 21.9434 39.7855H21.8752V43.4545H21.1167ZM21.8667 37.7315C21.8667 38.2599 21.9448 38.7287 22.101 39.1378C22.2601 39.544 22.4874 39.8636 22.7828 40.0966C23.0811 40.3267 23.4419 40.4418 23.8652 40.4418C24.2999 40.4418 24.6664 40.3224 24.9647 40.0838C25.2658 39.8423 25.4945 39.517 25.6507 39.108C25.8098 38.6989 25.8894 38.2401 25.8894 37.7315C25.8894 37.2287 25.8113 36.7756 25.655 36.3722C25.5016 35.9687 25.2743 35.6491 24.9732 35.4134C24.6721 35.1747 24.3027 35.0554 23.8652 35.0554C23.4391 35.0554 23.0769 35.1705 22.7786 35.4006C22.4803 35.6278 22.253 35.9432 22.0968 36.3466C21.9434 36.7472 21.8667 37.2088 21.8667 37.7315ZM27.8901 39.3295H28.6955C28.7182 39.679 28.8688 39.9517 29.1472 40.1477C29.4256 40.3438 29.7921 40.4418 30.2466 40.4418C30.7182 40.4418 31.1074 40.3366 31.4142 40.1264C31.7211 39.9134 31.8745 39.6037 31.8745 39.1974C31.8745 38.9503 31.8162 38.7358 31.6998 38.554C31.5861 38.3722 31.4299 38.2301 31.231 38.1278C31.035 38.0227 30.812 37.9687 30.562 37.9659H29.4199V37.2713H30.5492C30.9384 37.2486 31.2338 37.1435 31.4355 36.956C31.6373 36.7656 31.7381 36.517 31.7381 36.2102C31.7381 35.8608 31.6145 35.581 31.3674 35.3707C31.1202 35.1577 30.785 35.0511 30.3617 35.0511C29.9327 35.0511 29.5762 35.1562 29.2921 35.3665C29.008 35.5767 28.8574 35.8466 28.8404 36.1761H28.0435C28.0577 35.821 28.1642 35.5085 28.3631 35.2386C28.562 34.9659 28.8304 34.7528 29.1685 34.5994C29.5094 34.446 29.8958 34.3693 30.3276 34.3693C30.7708 34.3693 31.1557 34.4489 31.4824 34.608C31.8091 34.767 32.062 34.9844 32.2409 35.2599C32.4199 35.5327 32.5094 35.8423 32.5094 36.1889C32.5094 36.5497 32.41 36.8466 32.2111 37.0795C32.0151 37.3097 31.7637 37.4716 31.4569 37.5653V37.6293C31.6898 37.6548 31.8944 37.7401 32.0705 37.8849C32.2495 38.0298 32.3901 38.2159 32.4924 38.4432C32.5946 38.6705 32.6458 38.9219 32.6458 39.1974C32.6458 39.5838 32.5449 39.9233 32.3432 40.2159C32.1415 40.5057 31.8603 40.7315 31.4995 40.8935C31.1415 41.0554 30.7282 41.1364 30.2594 41.1364C29.8077 41.1364 29.4057 41.0611 29.0534 40.9105C28.7012 40.7571 28.4213 40.5455 28.214 40.2756C28.0094 40.0028 27.9015 39.6875 27.8901 39.3295ZM34.965 39.9219L38.421 34.4545H39.3287V41H38.5701V35.5327L35.127 41H34.2065V34.4545H34.965V39.9219ZM45.7505 37.3736V38.0895H41.9025V37.3736H45.7505ZM42.09 34.4545V41H41.3315V34.4545H42.09ZM46.3088 34.4545V41H45.5502V34.4545H46.3088ZM50.1557 41.1491C49.7608 41.1491 49.4 41.0724 49.0733 40.919C48.7466 40.7628 48.4867 40.5384 48.2935 40.2457C48.1003 39.9503 48.0037 39.5923 48.0037 39.1719C48.0037 38.848 48.0648 38.5753 48.187 38.3537C48.3091 38.1321 48.4824 37.9503 48.7069 37.8082C48.9313 37.6662 49.1969 37.554 49.5037 37.4716C49.8105 37.3892 50.1486 37.3253 50.5179 37.2798C50.8844 37.2344 51.1941 37.1946 51.4469 37.1605C51.7026 37.1264 51.8972 37.0724 52.0307 36.9986C52.1642 36.9247 52.231 36.8054 52.231 36.6406V36.4872C52.231 36.0412 52.0975 35.6903 51.8304 35.4347C51.5662 35.1761 51.1855 35.0469 50.6884 35.0469C50.2168 35.0469 49.8319 35.1506 49.5336 35.358C49.2381 35.5653 49.0307 35.8097 48.9114 36.0909L48.1912 35.831C48.339 35.473 48.5435 35.1875 48.8049 34.9744C49.0662 34.7585 49.3588 34.6037 49.6827 34.5099C50.0066 34.4134 50.3347 34.3651 50.6671 34.3651C50.9171 34.3651 51.177 34.3977 51.4469 34.4631C51.7196 34.5284 51.9725 34.642 52.2054 34.804C52.4384 34.9631 52.6273 35.1861 52.7722 35.473C52.9171 35.7571 52.9895 36.1179 52.9895 36.5554V41H52.231V39.9645H52.1841C52.0932 40.1577 51.9583 40.3452 51.7793 40.527C51.6003 40.7088 51.3759 40.858 51.106 40.9744C50.8361 41.0909 50.5194 41.1491 50.1557 41.1491ZM50.258 40.4545C50.6614 40.4545 51.0108 40.3651 51.3063 40.1861C51.6017 40.0071 51.829 39.7699 51.9881 39.4744C52.15 39.1761 52.231 38.848 52.231 38.4901V37.544C52.1742 37.598 52.079 37.6463 51.9455 37.6889C51.8148 37.7315 51.6628 37.7699 51.4895 37.804C51.3191 37.8352 51.1486 37.8622 50.9782 37.8849C50.8077 37.9077 50.6543 37.9276 50.5179 37.9446C50.1486 37.9901 49.8333 38.0611 49.5719 38.1577C49.3105 38.2543 49.1103 38.3878 48.9711 38.5582C48.8319 38.7259 48.7623 38.9418 48.7623 39.206C48.7623 39.6037 48.9043 39.9119 49.1884 40.1307C49.4725 40.3466 49.829 40.4545 50.258 40.4545Z" fill="black"/>
</svg>
