<svg width="60" height="44" viewBox="0 0 60 44" fill="none" xmlns="http://www.w3.org/2000/svg">
<path d="M30 14.4444C33.865 14.4444 37 11.6535 37 8.21266C37 4.7718 33.865 2 30 2C26.135 2 23 4.79092 23 8.21266C23 11.6344 26.135 14.4444 30 14.4444V14.4444ZM30 3.62485C32.8344 3.62485 35.1534 5.68937 35.1534 8.21266C35.1534 10.736 32.8344 12.8005 30 12.8005C27.1656 12.8005 24.8466 10.736 24.8466 8.21266C24.8466 5.68937 27.1656 3.62485 30 3.62485Z" fill="black"/>
<path d="M16.9885 30H43.0115C43.5632 30 44 29.4333 44 28.7175C44 22.0066 39.7931 16.5185 34.5977 16.5185H25.4023C20.2299 16.5185 16 21.9767 16 28.7175C16 29.4333 16.4368 30 16.9885 30ZM25.4023 18.5926H34.5977C38.3678 18.5926 41.4713 23.2134 41.954 27.9259H18.046C18.5287 23.2432 21.6322 18.5926 25.4023 18.5926Z" fill="black"/>
<path d="M13.704 41V32.2727H16.6486C17.2168 32.2727 17.6898 32.3722 18.0676 32.571C18.4483 32.7699 18.7338 33.0412 18.9242 33.3849C19.1145 33.7287 19.2097 34.1193 19.2097 34.5568C19.2097 34.9205 19.1486 35.2315 19.0265 35.4901C18.9043 35.7486 18.7381 35.9574 18.5279 36.1165C18.3176 36.2756 18.0833 36.3906 17.8248 36.4616V36.5298C18.106 36.5497 18.3787 36.6491 18.6429 36.8281C18.9071 37.0043 19.1245 37.2514 19.2949 37.5696C19.4654 37.8878 19.5506 38.2685 19.5506 38.7116C19.5506 39.152 19.4526 39.5455 19.2566 39.892C19.0605 40.2358 18.7594 40.5071 18.3532 40.706C17.9498 40.902 17.4355 41 16.8105 41H13.704ZM14.5009 40.2841H16.8105C17.4838 40.2841 17.981 40.1349 18.302 39.8366C18.6259 39.5384 18.7878 39.1634 18.7878 38.7116C18.7878 38.3793 18.7069 38.0781 18.5449 37.8082C18.3858 37.5355 18.16 37.3196 17.8674 37.1605C17.5776 37.0014 17.2367 36.9219 16.8446 36.9219H14.5009V40.2841ZM14.5009 36.2145H16.7211C17.0648 36.2145 17.3659 36.1435 17.6245 36.0014C17.883 35.8594 18.0847 35.6634 18.2296 35.4134C18.3745 35.1634 18.4469 34.8778 18.4469 34.5568C18.4469 34.0937 18.2963 33.7173 17.9952 33.4276C17.6941 33.1349 17.2452 32.9886 16.6486 32.9886H14.5009V36.2145ZM23.8599 41.1364C23.2946 41.1364 22.7946 40.9929 22.3599 40.706C21.9281 40.419 21.59 40.0227 21.3457 39.517C21.1014 39.0085 20.9792 38.4219 20.9792 37.7571C20.9792 37.0866 21.1014 36.4972 21.3457 35.9886C21.59 35.4773 21.9281 35.0795 22.3599 34.7955C22.7946 34.5085 23.2946 34.3651 23.8599 34.3651C24.4252 34.3651 24.9238 34.5085 25.3556 34.7955C25.7875 35.0824 26.1255 35.4801 26.3699 35.9886C26.617 36.4972 26.7406 37.0866 26.7406 37.7571C26.7406 38.4219 26.6184 39.0085 26.3741 39.517C26.1298 40.0227 25.7903 40.419 25.3556 40.706C24.9238 40.9929 24.4252 41.1364 23.8599 41.1364ZM23.8599 40.4418C24.3145 40.4418 24.6994 40.3196 25.0147 40.0753C25.3301 39.831 25.5687 39.5057 25.7306 39.0994C25.8954 38.6932 25.9778 38.2457 25.9778 37.7571C25.9778 37.2685 25.8954 36.8196 25.7306 36.4105C25.5687 36.0014 25.3301 35.6733 25.0147 35.4261C24.6994 35.179 24.3145 35.0554 23.8599 35.0554C23.4082 35.0554 23.0233 35.179 22.7051 35.4261C22.3897 35.6733 22.1497 36.0014 21.9849 36.4105C21.823 36.8196 21.742 37.2685 21.742 37.7571C21.742 38.2457 21.823 38.6932 21.9849 39.0994C22.1497 39.5057 22.3897 39.831 22.7051 40.0753C23.0204 40.3196 23.4054 40.4418 23.8599 40.4418ZM29.1642 39.9219L32.6202 34.4545H33.5279V41H32.7694V35.5327L29.3262 41H28.4057V34.4545H29.1642V39.9219ZM31.7509 32.2727H32.4668C32.4668 32.679 32.3319 33.0085 32.062 33.2614C31.7949 33.5142 31.4299 33.6406 30.9668 33.6406C30.5094 33.6406 30.1472 33.5142 29.8801 33.2614C29.6131 33.0085 29.4796 32.679 29.4796 32.2727H30.1955C30.1955 32.4943 30.2551 32.6818 30.3745 32.8352C30.4966 32.9858 30.6941 33.0611 30.9668 33.0611C31.2395 33.0611 31.4384 32.9858 31.5634 32.8352C31.6884 32.6818 31.7509 32.4943 31.7509 32.2727ZM34.6145 35.1705V34.4545H39.7282V35.1705H37.5634V41H36.8049V35.1705H34.6145ZM42.09 39.9219L45.546 34.4545H46.4537V41H45.6951V35.5327L42.252 41H41.3315V34.4545H42.09V39.9219Z" fill="black"/>
</svg>
